<svg
                  width="14"
                  height="9"
                  fill="none"
                  xmlns="http://www.w3.org/2000/svg"
                >
                  <g clip-path="url(#a)" fill="#2DE300">
                    <path d="M4.861 7.175A2.902 2.902 0 0 0 6.886 8h3.251a2.897 2.897 0 0 0 2.065-.738c.562-.505.896-1.21.93-1.959a2.8 2.8 0 0 0-.75-2.033 2.89 2.89 0 0 0-1.99-.916.5.5 0 0 0-.36.108.484.484 0 0 0-.177.326.486.486 0 0 0 .11.354.5.5 0 0 0 .33.176c.49.03.947.25 1.274.608a1.825 1.825 0 0 1-.117 2.578 1.887 1.887 0 0 1-1.324.493H6.886a1.882 1.882 0 0 1-1.2-.568 1.824 1.824 0 0 1-.077-2.45A1.878 1.878 0 0 1 6.77 3.34a.507.507 0 0 0 .348-.163.491.491 0 0 0-.037-.7.508.508 0 0 0-.364-.127 2.891 2.891 0 0 0-1.53.54 2.824 2.824 0 0 0-.984 1.273 2.778 2.778 0 0 0-.122 1.595c.116.532.387 1.02.78 1.404v.013Z"></path>
                    <path d="M.838 4.816a2.887 2.887 0 0 0 1.765.813c.13.01.259-.029.36-.11a.493.493 0 0 0 .182-.325.481.481 0 0 0-.11-.354.496.496 0 0 0-.331-.176 1.885 1.885 0 0 1-1.237-.63 1.828 1.828 0 0 1 .125-2.543 1.89 1.89 0 0 1 1.293-.51h3.251c.48.003.942.187 1.289.515a1.828 1.828 0 0 1 .119 2.54 1.885 1.885 0 0 1-1.236.628.496.496 0 0 0-.331.176.481.481 0 0 0-.11.354c.015.128.08.244.182.325.101.081.23.12.36.11a2.89 2.89 0 0 0 1.99-.92 2.8 2.8 0 0 0 .745-2.034A2.808 2.808 0 0 0 8.211.717a2.897 2.897 0 0 0-2.066-.734H2.867a2.9 2.9 0 0 0-1.592.475c-.47.31-.838.75-1.055 1.266a2.783 2.783 0 0 0-.164 1.63c.11.547.382 1.05.782 1.445v.017Z"></path>
                  </g>
                  <defs>
                    <clipPath id="a">
                      <path fill="#fff" d="M0 0h13v8H0z"></path>
                    </clipPath>
                  </defs>
                </svg>